# xmcd CD database file
#
# Track frame offsets:
#	150
#	19303
#	35476
#	57013
#	74670
#	91889
#	108222
#	125039
#	140808
#	157113
#	173017
#	190594
#	206238
#	222326
#	234032
#	249051
#	264562
#	276457
#	294423
#	318758
#
# Disc length: 4432 seconds
#
# Revision: 2
# Processed by: cddbd v1.5.1PL2 Copyright (c) Steve Scherf et al.
# Submitted via: CDex 1.51
#
DISCID=28114e14
DTITLE=Various Artist - The Love Album 3
DYEAR=2001
DGENRE=Blues
TTITLE0=Careless Whisper
TTITLE1=Flying without wings
TTITLE2=I believe I can fly
TTITLE3=How deep is your love
TTITLE4=Let it be
TTITLE5=If I could turn back the hands of time
TTITLE6=Candle in the wind
TTITLE7=High
TTITLE8=Close to you
TTITLE9=Tears in heaven
TTITLE10=Yesterday once more
TTITLE11=S.O.S.
TTITLE12=She's the one
TTITLE13=When a man loves a woman
TTITLE14=Two in a million
TTITLE15=Woman
TTITLE16=Don't let the sun go down on me
TTITLE17=Dancing queen
TTITLE18=Parisienne walkways
TTITLE19=When the heartache is over
EXTD=YEAR: 2001
EXTT0=
EXTT1=
EXTT2=
EXTT3=
EXTT4=
EXTT5=
EXTT6=
EXTT7=
EXTT8=
EXTT9=
EXTT10=
EXTT11=
EXTT12=
EXTT13=
EXTT14=
EXTT15=
EXTT16=
EXTT17=
EXTT18=
EXTT19=
PLAYORDER=
